<svg width="105" height="47" viewBox="0 0 105 47" fill="none" xmlns="http://www.w3.org/2000/svg">
<path d="M14.32 40.92C13.0133 40.92 11.76 40.3467 10.56 39.2C9.38667 38.0533 8.42667 36.3867 7.68 34.2C6.93333 32.04 6.56 29.4267 6.56 26.36C6.56 25.9867 6.56 25.6 6.56 25.2C6.58667 24.8 6.61333 24.3867 6.64 23.96C6.37333 23.9867 6.10667 24 5.84 24C5.6 24 5.37333 24 5.16 24C3.61333 24 2.48 23.8 1.76 23.4C1.06667 23 0.72 22.48 0.72 21.84C0.72 21.2 1.02667 20.4933 1.64 19.72C2.28 18.9467 3.16 18.16 4.28 17.36C5.4 16.56 6.69333 15.84 8.16 15.2C8.77333 12.9867 9.57333 10.6533 10.56 8.2C11.5467 5.74667 12.7733 3.18666 14.24 0.519998C14.4267 0.173332 14.7067 -4.76837e-07 15.08 -4.76837e-07C15.32 -4.76837e-07 15.5333 0.0799993 15.72 0.239999C15.9067 0.399998 16 0.613331 16 0.879998C16 1.01333 15.96 1.18666 15.88 1.4C15.6667 1.82667 15.4533 2.26667 15.24 2.72C15.0267 3.14667 14.8133 3.57333 14.6 4C15 3.92 15.3067 3.88 15.52 3.88C15.7333 3.88 15.9867 3.86667 16.28 3.84C16.5733 3.81333 17.0267 3.76 17.64 3.68C18.4933 3.54667 19.2933 3.44 20.04 3.36C20.8133 3.28 21.5333 3.24 22.2 3.24C24.7333 3.24 26.6 3.68 27.8 4.56C29 5.44 29.6 6.56 29.6 7.92C29.6 9.54667 28.8133 11.3333 27.24 13.28C25.9333 14.88 24.2933 16.4267 22.32 17.92C20.3733 19.4133 18.1733 20.6933 15.72 21.76C13.2933 22.8 10.7067 23.4933 7.96 23.84C7.85333 24.6133 7.77333 25.36 7.72 26.08C7.66667 26.8 7.64 27.48 7.64 28.12C7.64 30.44 7.90667 32.3467 8.44 33.84C9 35.36 9.68 36.5467 10.48 37.4C11.3067 38.2533 12.12 38.8533 12.92 39.2C13.7467 39.5467 14.4133 39.72 14.92 39.72C15.32 39.72 15.5867 39.6533 15.72 39.52C15.8267 39.3867 15.9467 39.32 16.08 39.32C16.3733 39.32 16.52 39.52 16.52 39.92C16.52 40.24 16.3733 40.4533 16.08 40.56C15.52 40.8 14.9333 40.92 14.32 40.92ZM8.08 23.12C10.88 22.56 13.4133 21.7067 15.68 20.56C17.9733 19.4133 20 18.0933 21.76 16.6C23.52 15.1067 25 13.5467 26.2 11.92C26.8933 11.0133 27.3867 10.2 27.68 9.48C27.9733 8.73333 28.12 8.08 28.12 7.52C28.12 6.61333 27.8 5.89333 27.16 5.36C26.5467 4.8 25.7333 4.4 24.72 4.16C23.7067 3.92 22.6133 3.8 21.44 3.8C20.2133 3.8 19 3.90667 17.8 4.12C16.6 4.33333 15.5333 4.61333 14.6 4.96C14.4133 5.04 14.2533 5.05333 14.12 5C13.3467 6.70667 12.64 8.34667 12 9.92C11.3867 11.4667 10.84 12.9467 10.36 14.36C11.5067 13.9867 12.7067 13.6667 13.96 13.4C15.2133 13.1333 16.5067 12.9733 17.84 12.92H18C18.2667 12.92 18.4 12.9733 18.4 13.08C18.4 13.16 18.2667 13.2533 18 13.36C17.76 13.4667 17.3467 13.5333 16.76 13.56C15.5333 13.6133 14.3733 13.7733 13.28 14.04C12.1867 14.28 11.1467 14.5867 10.16 14.96C9.65333 16.5067 9.22667 17.96 8.88 19.32C8.56 20.68 8.29333 21.9467 8.08 23.12ZM5.32 23.44C5.53333 23.44 5.74667 23.44 5.96 23.44C6.2 23.4133 6.44 23.3867 6.68 23.36C6.78667 22.2133 6.94667 21.0267 7.16 19.8C7.37333 18.5467 7.65333 17.2533 8 15.92C6.29333 16.8 4.93333 17.7867 3.92 18.88C2.90667 19.9467 2.4 20.8933 2.4 21.72C2.4 22.2267 2.64 22.64 3.12 22.96C3.6 23.28 4.33333 23.44 5.32 23.44ZM27.5291 18.64C27.2891 18.64 27.1157 18.52 27.0091 18.28C26.9291 18.0133 26.8891 17.8267 26.8891 17.72C26.8891 17.2933 27.0091 16.8933 27.2491 16.52C27.5157 16.12 27.8091 15.9067 28.1291 15.88H28.2491C28.5691 15.88 28.7824 15.96 28.8891 16.12C29.0224 16.2533 29.0891 16.4267 29.0891 16.64C29.0891 17.04 28.9157 17.48 28.5691 17.96C28.2224 18.4133 27.8757 18.64 27.5291 18.64ZM25.4891 32.96C24.5824 32.96 23.9691 32.6133 23.6491 31.92C23.3291 31.2267 23.1691 30.4267 23.1691 29.52C23.1691 28.6133 23.2624 27.6667 23.4491 26.68C23.6624 25.6667 23.8891 24.7467 24.1291 23.92C24.3957 23.0933 24.5957 22.5067 24.7291 22.16C25.0224 21.5467 25.3157 21.0267 25.6091 20.6C25.9024 20.1467 26.2224 19.92 26.5691 19.92C26.8091 19.92 26.9824 20.0133 27.0891 20.2C27.2224 20.36 27.2891 20.5733 27.2891 20.84C27.2891 21.3733 27.1424 21.92 26.8491 22.48C26.5557 23.0133 26.2891 23.52 26.0491 24C25.5157 25.0933 25.0891 26.0667 24.7691 26.92C24.4757 27.7733 24.3291 28.84 24.3291 30.12C24.3291 30.9467 24.4091 31.5467 24.5691 31.92C24.7557 32.2933 25.0091 32.48 25.3291 32.48C25.7557 32.48 26.2491 32.24 26.8091 31.76C27.3691 31.2533 27.9424 30.5867 28.5291 29.76C29.1157 28.9333 29.6357 28.04 30.0891 27.08C30.3824 26.4667 30.6091 26.16 30.7691 26.16C30.8757 26.16 30.9291 26.2667 30.9291 26.48C30.9291 26.7733 30.8091 27.2 30.5691 27.76C30.3557 28.2933 30.0891 28.84 29.7691 29.4C29.4757 29.96 29.1957 30.4 28.9291 30.72C28.4757 31.3067 27.9557 31.8267 27.3691 32.28C26.7824 32.7333 26.1557 32.96 25.4891 32.96ZM31.8516 32.8C31.1849 32.8 30.5982 32.56 30.0916 32.08C29.6116 31.6267 29.3716 30.84 29.3716 29.72C29.3716 29.1333 29.4916 28.4133 29.7316 27.56C29.9716 26.68 30.2916 25.76 30.6916 24.8C31.1182 23.84 31.5982 22.9467 32.1316 22.12C32.6649 21.2933 33.2249 20.6133 33.8116 20.08C34.3982 19.5467 34.9716 19.28 35.5316 19.28C35.9849 19.28 36.3049 19.44 36.4916 19.76C36.7049 20.08 36.8116 20.4267 36.8116 20.8C36.8116 21.12 36.7449 21.4133 36.6116 21.68C36.5049 21.92 36.3449 22.04 36.1316 22.04C35.9182 22.04 35.7582 21.9467 35.6516 21.76C35.5716 21.5467 35.4916 21.3467 35.4116 21.16C35.3582 20.9467 35.2116 20.84 34.9716 20.84C34.4916 20.84 34.0116 21.16 33.5316 21.8C33.0516 22.4133 32.6116 23.2 32.2116 24.16C31.8116 25.12 31.4916 26.1067 31.2516 27.12C31.0116 28.1333 30.8916 29.0267 30.8916 29.8C30.8916 30.4667 30.9716 30.96 31.1316 31.28C31.3182 31.5733 31.6516 31.72 32.1316 31.72C32.7449 31.72 33.3316 31.5467 33.8916 31.2C34.4782 30.8267 35.0116 30.3733 35.4916 29.84C35.9716 29.3067 36.3716 28.8 36.6916 28.32C37.0382 27.84 37.2782 27.48 37.4116 27.24C37.7316 26.6267 37.9849 26.32 38.1716 26.32C38.2516 26.32 38.2916 26.4267 38.2916 26.64C38.2916 26.9067 38.2382 27.1733 38.1316 27.44C38.0249 27.68 37.9182 27.9067 37.8116 28.12C37.4382 28.92 36.9316 29.68 36.2916 30.4C35.6516 31.0933 34.9449 31.6667 34.1716 32.12C33.4249 32.5733 32.6516 32.8 31.8516 32.8ZM49.7963 47C48.5696 47 47.3829 46.4933 46.2363 45.48C45.1163 44.4667 44.1696 43 43.3963 41.08C42.6496 39.16 42.2096 36.84 42.0763 34.12C41.2496 34.2 40.4896 34.24 39.7963 34.24C38.2496 34.24 37.1162 34.04 36.3963 33.64C35.7029 33.24 35.3562 32.72 35.3562 32.08C35.3562 31.44 35.6629 30.7333 36.2763 29.96C36.8896 29.1867 37.7429 28.4133 38.8363 27.64C39.9296 26.84 41.2096 26.12 42.6763 25.48C43.1829 22.76 43.9963 19.8267 45.1163 16.68C46.2629 13.5067 47.7963 10.1467 49.7163 6.6C49.9029 6.25333 50.1829 6.08 50.5563 6.08C50.7963 6.08 51.0096 6.16 51.1963 6.32C51.3829 6.48 51.4763 6.69333 51.4763 6.96C51.4763 7.09333 51.4363 7.26666 51.3563 7.48C49.6496 10.92 48.2229 14.08 47.0763 16.96C45.9563 19.8133 45.0763 22.4267 44.4363 24.8C45.6363 24.3467 46.9163 23.9733 48.2763 23.68C49.6363 23.3867 51.0229 23.2133 52.4363 23.16C52.8096 23.16 52.9963 23.2133 52.9963 23.32C52.9963 23.4267 52.8629 23.5333 52.5963 23.64C52.3563 23.72 51.9429 23.7733 51.3563 23.8C50.0496 23.88 48.7963 24.0667 47.5963 24.36C46.4229 24.6267 45.3163 24.96 44.2763 25.36C43.8763 26.9067 43.5696 28.3467 43.3563 29.68C43.1429 30.9867 43.0096 32.2 42.9563 33.32C45.7029 32.7333 48.1963 31.88 50.4363 30.76C52.7029 29.6133 54.7029 28.2933 56.4363 26.8C58.1696 25.3067 59.6229 23.76 60.7963 22.16C61.5429 21.1467 62.0763 20.2533 62.3963 19.48C62.7429 18.68 62.9163 17.9867 62.9163 17.4C62.9163 16.5467 62.6496 15.88 62.1163 15.4C61.5829 14.8933 60.8763 14.5333 59.9963 14.32C59.1163 14.08 58.1563 13.96 57.1163 13.96C56.0229 13.96 54.9163 14.0667 53.7963 14.28C52.6763 14.4667 51.6629 14.7333 50.7563 15.08C50.5429 15.1333 50.3963 15.16 50.3163 15.16C49.9696 15.16 49.7963 15.04 49.7963 14.8C49.7963 14.56 49.9429 14.3733 50.2363 14.24C53.5163 12.3733 55.8496 10.68 57.2363 9.16C58.6229 7.64 59.3163 6.36 59.3163 5.32C59.3163 4.41333 58.8896 3.72 58.0363 3.24C57.2096 2.73333 56.1163 2.48 54.7563 2.48C53.6896 2.48 52.4896 2.65333 51.1563 3C49.8229 3.34667 48.4496 3.90667 47.0363 4.68C45.8629 5.32 44.7963 6.08 43.8363 6.96C42.9029 7.81333 42.1029 8.70667 41.4362 9.64C40.7963 10.5467 40.3163 11.4133 39.9963 12.24C39.6763 13.04 39.5563 13.72 39.6363 14.28C39.6363 14.3333 39.6363 14.4 39.6363 14.48C39.6629 14.5333 39.6763 14.5867 39.6763 14.64C39.6763 15.3067 39.4763 15.64 39.0763 15.64C38.8896 15.64 38.6896 15.5067 38.4763 15.24C38.2896 14.9733 38.1963 14.5733 38.1963 14.04C38.1963 13.24 38.4363 12.3867 38.9163 11.48C39.4229 10.5733 40.0896 9.66666 40.9163 8.76C41.7696 7.82666 42.7163 6.96 43.7563 6.16C44.7963 5.33333 45.8763 4.62666 46.9963 4.04C48.4363 3.26666 49.8496 2.69333 51.2363 2.32C52.6496 1.94666 53.9429 1.76 55.1163 1.76C56.7429 1.76 58.0629 2.08 59.0763 2.72C60.0896 3.36 60.5963 4.25333 60.5963 5.4C60.5963 6.46667 60.0763 7.70667 59.0363 9.12C57.9963 10.5333 56.2496 12.0933 53.7963 13.8C54.6229 13.6667 55.3963 13.5733 56.1163 13.52C56.8363 13.44 57.5029 13.4 58.1163 13.4C60.4096 13.4 62.0629 13.7867 63.0763 14.56C64.1163 15.3067 64.6363 16.28 64.6363 17.48C64.6363 18.36 64.3829 19.32 63.8763 20.36C63.3963 21.3733 62.7163 22.4267 61.8363 23.52C60.5563 25.0933 58.9429 26.6133 56.9963 28.08C55.0763 29.5467 52.9163 30.8133 50.5163 31.88C48.1429 32.9467 45.6096 33.6667 42.9163 34.04C42.8629 36.4133 43.0763 38.3733 43.5563 39.92C44.0629 41.4667 44.7029 42.6667 45.4763 43.52C46.2496 44.4 47.0229 45.0133 47.7963 45.36C48.5696 45.7333 49.2096 45.92 49.7163 45.92C50.0896 45.92 50.3429 45.8533 50.4763 45.72C50.5829 45.5867 50.7429 45.52 50.9563 45.52C51.1696 45.52 51.3696 45.6 51.5563 45.76C51.7429 45.92 51.8363 46.0933 51.8363 46.28C51.8363 46.44 51.7429 46.56 51.5563 46.64C50.9696 46.88 50.3829 47 49.7963 47ZM39.9563 33.72C40.2496 33.72 40.5696 33.6933 40.9163 33.64C41.2629 33.6133 41.6362 33.5733 42.0362 33.52C42.0096 32.4 42.0363 31.2267 42.1163 30C42.1963 28.7733 42.3429 27.4933 42.5563 26.16C40.8496 27.04 39.5029 28.0267 38.5163 29.12C37.5296 30.1867 37.0363 31.1333 37.0363 31.96C37.0363 32.4667 37.2763 32.88 37.7563 33.2C38.2363 33.5467 38.9696 33.72 39.9563 33.72ZM71.2069 38.36C70.8602 38.36 70.5269 38.2267 70.2069 37.96C69.9135 37.6933 69.6602 37.4267 69.4469 37.16C68.5935 36.1733 67.8735 34.8667 67.2869 33.24C66.7269 31.6133 66.3002 29.8267 66.0069 27.88C65.7135 25.9067 65.5669 23.9067 65.5669 21.88C65.5669 19.9867 65.6869 18.1467 65.9269 16.36C66.1935 14.5733 66.5935 12.9467 67.1269 11.48C67.6602 10.0133 68.3269 8.84 69.1269 7.96C70.1669 6.78667 71.1669 6.2 72.1269 6.2C72.7135 6.2 73.1802 6.46667 73.5269 7C73.9002 7.50667 74.0869 8.32 74.0869 9.44C74.0869 10.5067 73.8735 11.8667 73.4469 13.52C73.0469 15.1467 72.3535 17.0933 71.3669 19.36C71.0202 20.1067 70.6469 20.8533 70.2469 21.6C69.8735 22.3467 69.4735 23.1333 69.0469 23.96C68.8869 24.28 68.7535 24.44 68.6469 24.44C68.5935 24.44 68.5669 24.3867 68.5669 24.28C68.5669 24.0667 68.6602 23.7867 68.8469 23.44C71.2735 18.88 72.4869 14.3467 72.4869 9.84C72.4869 8.05333 72.1135 7.16 71.3669 7.16C70.8335 7.16 70.2069 7.68 69.4869 8.72C68.5002 10.1867 67.8202 11.9333 67.4469 13.96C67.0735 15.96 66.8869 17.9867 66.8869 20.04C66.8869 21.5867 66.9535 23.0933 67.0869 24.56C67.2202 26 67.3802 27.3067 67.5669 28.48C67.6469 28.9867 67.7669 29.6667 67.9269 30.52C68.0869 31.3733 68.3002 32.2667 68.5669 33.2C68.8335 34.16 69.1269 35.0267 69.4469 35.8C69.7935 36.6 70.1669 37.1733 70.5669 37.52C70.6735 37.6 70.7802 37.68 70.8869 37.76C71.0202 37.8667 71.1669 37.9333 71.3269 37.96C71.5669 37.96 71.6869 38.0267 71.6869 38.16C71.6869 38.2933 71.5269 38.36 71.2069 38.36ZM75.3656 32.52C74.4056 32.52 73.5656 31.96 72.8456 30.84C72.1523 29.6933 71.8056 27.8933 71.8056 25.44C71.8056 23.84 72.0056 22.56 72.4056 21.6C72.8056 20.6133 73.299 19.8933 73.8856 19.44C74.4723 18.9867 75.0323 18.76 75.5656 18.76C76.099 18.76 76.5523 18.9467 76.9256 19.32C77.299 19.6667 77.4856 20.1733 77.4856 20.84C77.4856 21.48 77.299 22.16 76.9256 22.88C76.5523 23.5733 76.099 24.2133 75.5656 24.8C75.059 25.36 74.5523 25.7333 74.0456 25.92C73.939 25.9733 73.8056 26 73.6456 26C73.539 26 73.4856 25.96 73.4856 25.88C73.4856 25.6667 73.699 25.4267 74.1256 25.16C74.659 24.7867 75.1656 24.2267 75.6456 23.48C76.1256 22.7067 76.3656 22.0267 76.3656 21.44C76.3656 21.0933 76.2856 20.8267 76.1256 20.64C75.9656 20.4267 75.779 20.32 75.5656 20.32C75.1656 20.32 74.7256 20.64 74.2456 21.28C73.7923 21.8933 73.459 22.96 73.2456 24.48C73.1923 24.9067 73.139 25.32 73.0856 25.72C73.059 26.0933 73.0456 26.4667 73.0456 26.84C73.0456 28.3333 73.2723 29.5067 73.7256 30.36C74.179 31.1867 74.779 31.6 75.5256 31.6C76.1656 31.6 76.8856 31.2267 77.6856 30.48C78.4856 29.7067 79.2723 28.5067 80.0456 26.88C80.2323 26.4533 80.4456 26.24 80.6856 26.24C80.8456 26.24 80.9256 26.3467 80.9256 26.56C80.9256 26.7467 80.8723 26.9467 80.7656 27.16C80.0723 28.8667 79.2323 30.1867 78.2456 31.12C77.259 32.0533 76.299 32.52 75.3656 32.52ZM88.2153 32.52C87.8686 32.52 87.562 32.3067 87.2953 31.88C87.0286 31.4267 86.8953 30.5733 86.8953 29.32C86.8953 28.3333 86.9753 27.2533 87.1353 26.08C87.2953 24.88 87.4686 23.6933 87.6553 22.52C87.8686 21.3467 88.0553 20.3067 88.2153 19.4C88.3753 18.4667 88.4553 17.7867 88.4553 17.36C88.4553 16.6133 88.2286 16.24 87.7753 16.24C87.3486 16.24 86.9086 16.4533 86.4553 16.88C86.0286 17.3067 85.6153 17.8267 85.2153 18.44C84.842 19.0533 84.5086 19.6533 84.2153 20.24C83.9486 20.8 83.7753 21.2133 83.6953 21.48C83.322 22.52 83.0553 23.56 82.8953 24.6C82.7353 25.6133 82.6553 26.6667 82.6553 27.76C82.6553 28.2133 82.6686 28.68 82.6953 29.16C82.7486 29.64 82.7886 30.1333 82.8153 30.64C82.8686 30.9067 82.7886 31.24 82.5753 31.64C82.3886 32.0133 82.162 32.2 81.8953 32.2C81.7086 32.2 81.5486 32.08 81.4153 31.84C81.282 31.6 81.1886 31.3867 81.1353 31.2C81.0286 30.88 80.9486 30.5467 80.8953 30.2C80.842 29.8267 80.7886 29.5067 80.7353 29.24C80.5486 28.1467 80.3753 27.04 80.2153 25.92C80.0553 24.7733 79.8286 23.6667 79.5353 22.6C79.4553 22.3067 79.3486 22 79.2153 21.68C79.1086 21.3333 78.9353 21.0533 78.6953 20.84C78.642 20.7867 78.562 20.7333 78.4553 20.68C78.3486 20.6 78.2953 20.5333 78.2953 20.48C78.2953 20.3733 78.442 20.32 78.7353 20.32C79.0553 20.32 79.3753 20.48 79.6953 20.8C80.0153 21.12 80.3086 21.5467 80.5753 22.08C80.8953 22.7467 81.162 23.4533 81.3753 24.2C81.6153 24.9467 81.802 25.5467 81.9353 26C82.0953 25.04 82.2686 24.1867 82.4553 23.44C82.642 22.8 82.8953 22.04 83.2153 21.16C83.5353 20.2533 83.9353 19.3733 84.4153 18.52C84.8953 17.64 85.4686 16.92 86.1353 16.36C86.802 15.7733 87.5753 15.48 88.4553 15.48C89.7353 15.48 90.3753 16.2267 90.3753 17.72C90.3753 18.4933 90.242 19.3467 89.9753 20.28C89.7086 21.1867 89.4153 22.0267 89.0953 22.8C88.802 23.5733 88.602 24.1067 88.4953 24.4C88.362 24.7733 88.2153 25.28 88.0553 25.92C87.922 26.56 87.802 27.2267 87.6953 27.92C87.6153 28.6133 87.5753 29.2533 87.5753 29.84C87.5753 30.3467 87.6286 30.7733 87.7353 31.12C87.8686 31.44 88.0686 31.6 88.3353 31.6C88.602 31.6 88.842 31.48 89.0553 31.24C89.2686 30.9733 89.442 30.7333 89.5753 30.52C89.7353 30.3067 89.8153 30.2667 89.8153 30.4C89.8686 30.8 89.722 31.2533 89.3753 31.76C89.0553 32.2667 88.6686 32.52 88.2153 32.52ZM92.5006 33.88C91.8606 33.88 91.3806 33.6 91.0606 33.04C90.7406 32.5067 90.5806 31.8267 90.5806 31C90.5806 30.4133 90.7006 29.68 90.9406 28.8C91.1806 27.92 91.514 27 91.9406 26.04C92.3673 25.08 92.8473 24.1867 93.3806 23.36C93.914 22.5067 94.4606 21.8267 95.0206 21.32C95.6073 20.7867 96.1806 20.52 96.7406 20.52C97.194 20.52 97.514 20.6933 97.7006 21.04C97.914 21.36 98.0206 21.7067 98.0206 22.08C98.0206 22.4 97.954 22.6933 97.8206 22.96C97.714 23.2 97.554 23.32 97.3406 23.32C97.1273 23.32 96.9673 23.2267 96.8606 23.04C96.7806 22.8267 96.7006 22.6133 96.6206 22.4C96.5673 22.1867 96.4206 22.08 96.1806 22.08C95.7006 22.08 95.2206 22.3867 94.7406 23C94.2606 23.6133 93.8206 24.3867 93.4206 25.32C93.0206 26.2533 92.7006 27.2267 92.4606 28.24C92.2206 29.2267 92.1006 30.1067 92.1006 30.88C92.1006 31.44 92.1673 31.88 92.3006 32.2C92.4606 32.5467 92.714 32.72 93.0606 32.72C93.514 32.72 93.9673 32.44 94.4206 31.88C94.9006 31.2933 95.3673 30.5467 95.8206 29.64C96.274 28.7067 96.6873 27.7333 97.0606 26.72C97.4606 25.7067 97.794 24.76 98.0606 23.88C98.354 22.9733 98.5806 22.2533 98.7406 21.72C98.954 19.8533 99.2073 17.9733 99.5006 16.08C99.8206 14.1867 100.287 12.3467 100.901 10.56C100.981 10.2667 101.101 10.0133 101.261 9.8C101.447 9.58667 101.634 9.48 101.821 9.48C102.034 9.48 102.207 9.62667 102.341 9.92C102.501 10.2133 102.581 10.5467 102.581 10.92C102.581 11.2133 102.527 11.52 102.421 11.84C102.314 12.16 102.181 12.5867 102.021 13.12C101.834 13.76 101.594 14.6133 101.301 15.68C101.034 16.72 100.754 17.9067 100.461 19.24C100.167 20.5467 99.914 21.9467 99.7006 23.44C99.514 24.9067 99.4206 26.3733 99.4206 27.84C99.4206 28.96 99.5006 29.7467 99.6606 30.2C99.8206 30.6533 100.034 30.88 100.301 30.88C100.594 30.88 100.914 30.6933 101.261 30.32C101.634 29.9467 101.994 29.4933 102.341 28.96C102.714 28.4267 103.047 27.8933 103.341 27.36C103.634 26.8 103.861 26.36 104.021 26.04C104.314 25.4533 104.541 25.16 104.701 25.16C104.807 25.16 104.861 25.28 104.861 25.52C104.861 25.7067 104.821 25.9067 104.741 26.12C104.581 26.4667 104.474 26.7333 104.421 26.92C104.367 27.08 104.301 27.24 104.221 27.4C104.167 27.56 104.034 27.8133 103.821 28.16C103.634 28.48 103.341 28.92 102.941 29.48C102.541 30.0133 102.087 30.5067 101.581 30.96C101.074 31.3867 100.567 31.6 100.061 31.6C99.554 31.6 99.1673 31.3867 98.9006 30.96C98.6606 30.5333 98.5006 29.9867 98.4206 29.32C98.3673 28.6267 98.3406 27.92 98.3406 27.2C98.3406 26.32 98.3806 25.3867 98.4606 24.4C98.274 25.04 98.0206 25.8 97.7006 26.68C97.3806 27.5333 97.0206 28.4 96.6206 29.28C96.2206 30.16 95.794 30.96 95.3406 31.68C94.9673 32.2667 94.554 32.7733 94.1006 33.2C93.6473 33.6533 93.114 33.88 92.5006 33.88Z" fill="url(#paint0_linear_141_3)"/>
<defs>
<linearGradient id="paint0_linear_141_3" x1="13.1024" y1="5.78378" x2="80.5542" y2="40.2527" gradientUnits="userSpaceOnUse">
<stop offset="0.0795667" stop-color="#E80780"/>
<stop offset="1" stop-color="#737373"/>
</linearGradient>
</defs>
</svg>
